<svg width="2877" height="1468" viewBox="0 0 2877 1468" fill="none" xmlns="http://www.w3.org/2000/svg">
<rect width="2877" height="1468" fill="#F5F5F5"/>
<path d="M0 74C0 72.8954 0.895431 72 2 72H2648C2649.1 72 2650 72.8954 2650 74V1466C2650 1467.1 2649.1 1468 2648 1468H1.99999C0.895423 1468 0 1467.1 0 1466V74Z" fill="white"/>
<path d="M2 73H2648V71H2V73ZM2649 74V1466H2651V74H2649ZM2648 1467H1.99999V1469H2648V1467ZM1 1466V74H-1V1466H1ZM1.99999 1467C1.44771 1467 1 1466.55 1 1466H-1C-1 1467.66 0.343133 1469 1.99999 1469V1467ZM2649 1466C2649 1466.55 2648.55 1467 2648 1467V1469C2649.66 1469 2651 1467.66 2651 1466H2649ZM2648 73C2648.55 73 2649 73.4477 2649 74H2651C2651 72.3432 2649.66 71 2648 71V73ZM2 71C0.343153 71 -1 72.3431 -1 74H1C1 73.4477 1.44771 73 2 73V71Z" fill="black" fill-opacity="0.1"/>
<circle cx="556" cy="1074" r="130" fill="black"/>
<circle cx="1660" cy="1074" r="130" fill="black"/>
<rect x="354" y="456" width="1436" height="616" rx="50" fill="#29B2DD"/>
<rect x="354" y="456" width="1436" height="616" rx="50" fill="url(#paint0_linear_0_1)"/>
<ellipse cx="374" cy="868" rx="220" ry="204" fill="#27B4D3"/>
<ellipse cx="1790" cy="870" rx="220" ry="204" fill="#27B4D3"/>
<rect x="558" y="544" width="452" height="226" fill="#D9D9D9"/>
<rect x="1182" y="538" width="452" height="226" fill="#D9D9D9"/>
<line x1="1002.32" y1="449.598" x2="1122.32" y2="305.598" stroke="black" stroke-width="20"/>
<path d="M651.636 159.455H658.364L674.182 198.091H674.727L690.545 159.455H697.273V206H692V170.636H691.545L677 206H671.909L657.364 170.636H656.909V206H651.636V159.455ZM711.301 219.091C710.392 219.091 709.581 219.015 708.869 218.864C708.157 218.727 707.665 218.591 707.392 218.455L708.756 213.727C710.059 214.061 711.21 214.182 712.21 214.091C713.21 214 714.097 213.553 714.869 212.75C715.657 211.962 716.377 210.682 717.028 208.909L718.028 206.182L705.119 171.091H710.938L720.574 198.909H720.938L730.574 171.091H736.392L721.574 211.091C720.907 212.894 720.081 214.386 719.097 215.568C718.112 216.765 716.968 217.652 715.665 218.227C714.377 218.803 712.922 219.091 711.301 219.091ZM777.017 171.091V175.636H758.199V171.091H777.017ZM763.835 206V166.273C763.835 164.273 764.305 162.606 765.244 161.273C766.184 159.939 767.403 158.939 768.903 158.273C770.403 157.606 771.987 157.273 773.653 157.273C774.972 157.273 776.047 157.379 776.881 157.591C777.714 157.803 778.335 158 778.744 158.182L777.199 162.818C776.926 162.727 776.547 162.614 776.062 162.477C775.593 162.341 774.972 162.273 774.199 162.273C772.426 162.273 771.146 162.72 770.358 163.614C769.585 164.508 769.199 165.818 769.199 167.545V206H763.835ZM784.534 206V171.091H789.898V206H784.534ZM787.261 165.273C786.216 165.273 785.314 164.917 784.557 164.205C783.814 163.492 783.443 162.636 783.443 161.636C783.443 160.636 783.814 159.78 784.557 159.068C785.314 158.356 786.216 158 787.261 158C788.307 158 789.201 158.356 789.943 159.068C790.701 159.78 791.08 160.636 791.08 161.636C791.08 162.636 790.701 163.492 789.943 164.205C789.201 164.917 788.307 165.273 787.261 165.273ZM799.722 206V171.091H804.903V176.364H805.267C805.903 174.636 807.055 173.235 808.722 172.159C810.388 171.083 812.267 170.545 814.358 170.545C814.752 170.545 815.244 170.553 815.835 170.568C816.426 170.583 816.873 170.606 817.176 170.636V176.091C816.994 176.045 816.578 175.977 815.926 175.886C815.29 175.78 814.616 175.727 813.903 175.727C812.206 175.727 810.691 176.083 809.358 176.795C808.04 177.492 806.994 178.462 806.222 179.705C805.464 180.932 805.085 182.333 805.085 183.909V206H799.722ZM848.261 178.909L843.443 180.273C843.14 179.47 842.693 178.689 842.102 177.932C841.527 177.159 840.739 176.523 839.739 176.023C838.739 175.523 837.458 175.273 835.898 175.273C833.761 175.273 831.981 175.765 830.557 176.75C829.148 177.72 828.443 178.955 828.443 180.455C828.443 181.788 828.928 182.841 829.898 183.614C830.867 184.386 832.383 185.03 834.443 185.545L839.625 186.818C842.746 187.576 845.072 188.735 846.602 190.295C848.133 191.841 848.898 193.833 848.898 196.273C848.898 198.273 848.322 200.061 847.17 201.636C846.034 203.212 844.443 204.455 842.398 205.364C840.352 206.273 837.973 206.727 835.261 206.727C831.701 206.727 828.754 205.955 826.42 204.409C824.087 202.864 822.61 200.606 821.989 197.636L827.08 196.364C827.564 198.242 828.481 199.652 829.83 200.591C831.193 201.53 832.973 202 835.17 202C837.67 202 839.655 201.47 841.125 200.409C842.61 199.333 843.352 198.045 843.352 196.545C843.352 195.333 842.928 194.318 842.08 193.5C841.231 192.667 839.928 192.045 838.17 191.636L832.352 190.273C829.155 189.515 826.807 188.341 825.307 186.75C823.822 185.144 823.08 183.136 823.08 180.727C823.08 178.758 823.633 177.015 824.739 175.5C825.86 173.985 827.383 172.795 829.307 171.932C831.246 171.068 833.443 170.636 835.898 170.636C839.352 170.636 842.064 171.394 844.034 172.909C846.019 174.424 847.428 176.424 848.261 178.909ZM872.153 171.091V175.636H854.062V171.091H872.153ZM859.335 162.727H864.699V196C864.699 197.515 864.919 198.652 865.358 199.409C865.813 200.152 866.388 200.652 867.085 200.909C867.797 201.152 868.547 201.273 869.335 201.273C869.926 201.273 870.411 201.242 870.79 201.182C871.169 201.106 871.472 201.045 871.699 201L872.79 205.818C872.426 205.955 871.919 206.091 871.267 206.227C870.616 206.379 869.79 206.455 868.79 206.455C867.275 206.455 865.79 206.129 864.335 205.477C862.896 204.826 861.699 203.833 860.744 202.5C859.805 201.167 859.335 199.485 859.335 197.455V162.727ZM898.222 219.091V171.091H903.403V176.636H904.04C904.434 176.03 904.979 175.258 905.676 174.318C906.388 173.364 907.403 172.515 908.722 171.773C910.055 171.015 911.858 170.636 914.131 170.636C917.07 170.636 919.661 171.371 921.903 172.841C924.146 174.311 925.896 176.394 927.153 179.091C928.411 181.788 929.04 184.97 929.04 188.636C929.04 192.333 928.411 195.538 927.153 198.25C925.896 200.947 924.153 203.038 921.926 204.523C919.699 205.992 917.131 206.727 914.222 206.727C911.979 206.727 910.184 206.356 908.835 205.614C907.487 204.856 906.449 204 905.722 203.045C904.994 202.076 904.434 201.273 904.04 200.636H903.585V219.091H898.222ZM903.494 188.545C903.494 191.182 903.881 193.508 904.653 195.523C905.426 197.523 906.555 199.091 908.04 200.227C909.525 201.348 911.343 201.909 913.494 201.909C915.737 201.909 917.608 201.318 919.108 200.136C920.623 198.939 921.759 197.333 922.517 195.318C923.29 193.288 923.676 191.03 923.676 188.545C923.676 186.091 923.297 183.879 922.54 181.909C921.797 179.924 920.669 178.356 919.153 177.205C917.653 176.038 915.767 175.455 913.494 175.455C911.313 175.455 909.479 176.008 907.994 177.114C906.509 178.205 905.388 179.735 904.631 181.705C903.873 183.659 903.494 185.939 903.494 188.545ZM937.222 206V171.091H942.585V206H937.222ZM939.949 165.273C938.903 165.273 938.002 164.917 937.244 164.205C936.502 163.492 936.131 162.636 936.131 161.636C936.131 160.636 936.502 159.78 937.244 159.068C938.002 158.356 938.903 158 939.949 158C940.994 158 941.888 158.356 942.631 159.068C943.388 159.78 943.767 160.636 943.767 161.636C943.767 162.636 943.388 163.492 942.631 164.205C941.888 164.917 940.994 165.273 939.949 165.273ZM966.591 206.727C963.318 206.727 960.5 205.955 958.136 204.409C955.773 202.864 953.955 200.735 952.682 198.023C951.409 195.311 950.773 192.212 950.773 188.727C950.773 185.182 951.424 182.053 952.727 179.341C954.045 176.614 955.879 174.485 958.227 172.955C960.591 171.409 963.348 170.636 966.5 170.636C968.955 170.636 971.167 171.091 973.136 172C975.106 172.909 976.72 174.182 977.977 175.818C979.235 177.455 980.015 179.364 980.318 181.545H974.955C974.545 179.955 973.636 178.545 972.227 177.318C970.833 176.076 968.955 175.455 966.591 175.455C964.5 175.455 962.667 176 961.091 177.091C959.53 178.167 958.311 179.689 957.432 181.659C956.568 183.614 956.136 185.909 956.136 188.545C956.136 191.242 956.561 193.591 957.409 195.591C958.273 197.591 959.485 199.144 961.045 200.25C962.621 201.356 964.47 201.909 966.591 201.909C967.985 201.909 969.25 201.667 970.386 201.182C971.523 200.697 972.485 200 973.273 199.091C974.061 198.182 974.621 197.091 974.955 195.818H980.318C980.015 197.879 979.265 199.735 978.068 201.386C976.886 203.023 975.318 204.326 973.364 205.295C971.424 206.25 969.167 206.727 966.591 206.727ZM1003.34 171.091V175.636H985.25V171.091H1003.34ZM990.523 162.727H995.886V196C995.886 197.515 996.106 198.652 996.545 199.409C997 200.152 997.576 200.652 998.273 200.909C998.985 201.152 999.735 201.273 1000.52 201.273C1001.11 201.273 1001.6 201.242 1001.98 201.182C1002.36 201.106 1002.66 201.045 1002.89 201L1003.98 205.818C1003.61 205.955 1003.11 206.091 1002.45 206.227C1001.8 206.379 1000.98 206.455 999.977 206.455C998.462 206.455 996.977 206.129 995.523 205.477C994.083 204.826 992.886 203.833 991.932 202.5C990.992 201.167 990.523 199.485 990.523 197.455V162.727ZM1033.41 191.727V171.091H1038.77V206H1033.41V200.091H1033.05C1032.23 201.864 1030.95 203.371 1029.23 204.614C1027.5 205.841 1025.32 206.455 1022.68 206.455C1020.5 206.455 1018.56 205.977 1016.86 205.023C1015.17 204.053 1013.83 202.598 1012.86 200.659C1011.89 198.705 1011.41 196.242 1011.41 193.273V171.091H1016.77V192.909C1016.77 195.455 1017.48 197.485 1018.91 199C1020.35 200.515 1022.18 201.273 1024.41 201.273C1025.74 201.273 1027.1 200.932 1028.48 200.25C1029.87 199.568 1031.04 198.523 1031.98 197.114C1032.93 195.705 1033.41 193.909 1033.41 191.727ZM1048.6 206V171.091H1053.78V176.364H1054.14C1054.78 174.636 1055.93 173.235 1057.6 172.159C1059.26 171.083 1061.14 170.545 1063.23 170.545C1063.63 170.545 1064.12 170.553 1064.71 170.568C1065.3 170.583 1065.75 170.606 1066.05 170.636V176.091C1065.87 176.045 1065.45 175.977 1064.8 175.886C1064.16 175.78 1063.49 175.727 1062.78 175.727C1061.08 175.727 1059.57 176.083 1058.23 176.795C1056.91 177.492 1055.87 178.462 1055.1 179.705C1054.34 180.932 1053.96 182.333 1053.96 183.909V206H1048.6ZM1085.98 206.727C1082.62 206.727 1079.72 205.985 1077.28 204.5C1074.85 203 1072.98 200.909 1071.66 198.227C1070.36 195.53 1069.71 192.394 1069.71 188.818C1069.71 185.242 1070.36 182.091 1071.66 179.364C1072.98 176.621 1074.82 174.485 1077.16 172.955C1079.53 171.409 1082.29 170.636 1085.44 170.636C1087.26 170.636 1089.05 170.939 1090.82 171.545C1092.6 172.152 1094.21 173.136 1095.66 174.5C1097.12 175.848 1098.28 177.636 1099.14 179.864C1100.01 182.091 1100.44 184.833 1100.44 188.091V190.364H1073.53V185.727H1094.98C1094.98 183.758 1094.59 182 1093.8 180.455C1093.03 178.909 1091.92 177.689 1090.48 176.795C1089.06 175.902 1087.38 175.455 1085.44 175.455C1083.3 175.455 1081.45 175.985 1079.89 177.045C1078.35 178.091 1077.16 179.455 1076.32 181.136C1075.49 182.818 1075.07 184.621 1075.07 186.545V189.636C1075.07 192.273 1075.53 194.508 1076.44 196.341C1077.36 198.159 1078.64 199.545 1080.28 200.5C1081.91 201.439 1083.82 201.909 1085.98 201.909C1087.39 201.909 1088.66 201.712 1089.8 201.318C1090.95 200.909 1091.95 200.303 1092.78 199.5C1093.61 198.682 1094.26 197.667 1094.71 196.455L1099.89 197.909C1099.35 199.667 1098.43 201.212 1097.14 202.545C1095.85 203.864 1094.26 204.894 1092.37 205.636C1090.48 206.364 1088.35 206.727 1085.98 206.727Z" fill="#17E582"/>
<path d="M1934 252C1907.68 225.682 1884.27 259.155 1874.67 284.667C1865.04 310.248 1871.99 323.343 1883.33 295.111C1893.13 270.741 1890.97 239.308 1888 213.778C1886.84 203.807 1896.62 231.91 1901.11 240.889C1919.7 278.074 1940.08 315.679 1968.22 346.667C1977.31 356.671 1996.82 368.297 1970.89 356.444C1969.94 356.009 1970.51 353.985 1971.33 353.333C2043.92 295.593 1881.37 444.229 2044 298.222C2131.48 219.689 2227.03 127.572 2282.44 22.2222C2285.55 16.3202 2284.18 -0.333303 2278.22 2.66667C2255.97 13.8771 2239.14 33.9408 2222.44 52.4445C2142.31 141.279 2078.6 243.544 2028.89 352C2020.12 371.132 2012.93 390.954 2005.56 410.667C1996.56 434.728 2000.42 433.429 2003.33 416C2012.22 362.899 2016.63 308.076 1996.44 256.444C1982.45 220.657 1965.23 196.397 1926.44 187.556C1888.67 178.945 1842.33 199.35 1822.44 232.444C1815.48 244.029 1815.22 259.102 1822.89 270.222C1827.73 277.25 1844.72 276.666 1844.89 286.222C1845.07 296.328 1833.16 342.229 1833.11 342.444C1829.17 360.18 1800.04 449.46 1824.67 465.333C1851.44 482.591 1889.99 377.296 1891.78 372.222C1904.64 335.756 1912.06 295.708 1910 256.889C1909.86 254.287 1910.59 249.621 1908 249.333C1905.55 249.061 1904.95 254.215 1906 256.444C1926.42 299.974 2009.98 301.959 2045.11 303.556C2073.84 304.861 2102.68 303.298 2131.33 300.889C2144.22 299.806 2172.47 305.654 2169.33 293.111C2166.15 280.367 2143.1 294.625 2130 295.556C2048.27 301.357 1921.45 331.235 1860.89 252.889C1845.54 233.026 1843.13 193.631 1857.56 171.556C1859.89 167.976 1865.82 167.559 1870 168.444C1891.87 173.072 1912.51 182.448 1934.22 187.778C1986.18 200.532 2038.62 211.246 2090.89 222.667C2175.58 241.172 2260.62 258.161 2345.11 277.556C2469.39 306.082 2679.64 351.268 2805.78 407.111C2831.41 418.458 2866.5 429.762 2873.56 456.889C2886.67 507.263 2769.21 478.984 2726 508" stroke="black" stroke-width="3" stroke-linecap="round"/>
<rect y="36" width="59.375" height="30" rx="3" fill="white"/>
<rect x="0.5" y="36.5" width="58.375" height="29" rx="2.5" stroke="black" stroke-opacity="0.14902"/>
<path d="M11.3438 48C11.2969 47.6042 11.1068 47.2969 10.7734 47.0781C10.4401 46.8594 10.0313 46.75 9.54688 46.75C9.19271 46.75 8.88281 46.8073 8.61719 46.9219C8.35417 47.0365 8.14844 47.194 8 47.3945C7.85417 47.5951 7.78125 47.8229 7.78125 48.0781C7.78125 48.2917 7.83203 48.4753 7.93359 48.6289C8.03776 48.7799 8.17057 48.9062 8.33203 49.0078C8.49349 49.1068 8.66276 49.1888 8.83984 49.2539C9.01693 49.3164 9.17969 49.3672 9.32812 49.4062L10.1406 49.625C10.349 49.6797 10.5807 49.7552 10.8359 49.8516C11.0938 49.9479 11.3398 50.0794 11.5742 50.2461C11.8112 50.4102 12.0065 50.6211 12.1602 50.8789C12.3138 51.1367 12.3906 51.4531 12.3906 51.8281C12.3906 52.2604 12.2773 52.651 12.0508 53C11.8268 53.349 11.4987 53.6263 11.0664 53.832C10.6367 54.0378 10.1146 54.1406 9.5 54.1406C8.92708 54.1406 8.43099 54.0482 8.01172 53.8633C7.59505 53.6784 7.26693 53.4206 7.02734 53.0898C6.79036 52.7591 6.65625 52.375 6.625 51.9375H7.625C7.65104 52.2396 7.7526 52.4896 7.92969 52.6875C8.10938 52.8828 8.33594 53.0286 8.60938 53.125C8.88542 53.2187 9.18229 53.2656 9.5 53.2656C9.86979 53.2656 10.2018 53.2057 10.4961 53.0859C10.7904 52.9635 11.0234 52.7943 11.1953 52.5781C11.3672 52.3594 11.4531 52.1042 11.4531 51.8125C11.4531 51.5469 11.3789 51.3307 11.2305 51.1641C11.082 50.9974 10.8867 50.862 10.6445 50.7578C10.4023 50.6536 10.1406 50.5625 9.85938 50.4844L8.875 50.2031C8.25 50.0234 7.75521 49.7669 7.39062 49.4336C7.02604 49.1003 6.84375 48.6641 6.84375 48.125C6.84375 47.6771 6.96484 47.2865 7.20703 46.9531C7.45182 46.6172 7.77995 46.3568 8.19141 46.1719C8.60547 45.9844 9.06771 45.8906 9.57813 45.8906C10.0938 45.8906 10.5521 45.9831 10.9531 46.168C11.3542 46.3503 11.6719 46.6003 11.9062 46.918C12.1432 47.2357 12.2682 47.5964 12.2813 48H11.3438ZM16.374 54.125C15.7959 54.125 15.2972 53.9974 14.8779 53.7422C14.4613 53.4844 14.1396 53.125 13.9131 52.6641C13.6891 52.2005 13.5771 51.6615 13.5771 51.0469C13.5771 50.4323 13.6891 49.8906 13.9131 49.4219C14.1396 48.9505 14.4548 48.5833 14.8584 48.3203C15.2646 48.0547 15.7386 47.9219 16.2803 47.9219C16.5928 47.9219 16.9014 47.974 17.2061 48.0781C17.5107 48.1823 17.7881 48.3516 18.0381 48.5859C18.2881 48.8177 18.4873 49.125 18.6357 49.5078C18.7842 49.8906 18.8584 50.362 18.8584 50.9219V51.3125H14.2334V50.5156H17.9209C17.9209 50.1771 17.8532 49.875 17.7178 49.6094C17.585 49.3437 17.3949 49.1341 17.1475 48.9805C16.9027 48.8268 16.6136 48.75 16.2803 48.75C15.9131 48.75 15.5954 48.8411 15.3271 49.0234C15.0615 49.2031 14.8571 49.4375 14.7139 49.7266C14.5706 50.0156 14.499 50.3255 14.499 50.6562V51.1875C14.499 51.6406 14.5771 52.0247 14.7334 52.3398C14.8923 52.6523 15.1123 52.8906 15.3936 53.0547C15.6748 53.2161 16.0016 53.2969 16.374 53.2969C16.6162 53.2969 16.835 53.263 17.0303 53.1953C17.2282 53.125 17.3988 53.0208 17.542 52.8828C17.6852 52.7422 17.7959 52.5677 17.874 52.3594L18.7646 52.6094C18.6709 52.9115 18.5133 53.1771 18.292 53.4062C18.0706 53.6328 17.7972 53.8099 17.4717 53.9375C17.1462 54.0625 16.7803 54.125 16.374 54.125ZM22.6982 54.125C22.1357 54.125 21.6514 53.9922 21.2451 53.7266C20.8389 53.4609 20.5264 53.0951 20.3076 52.6289C20.0889 52.1628 19.9795 51.6302 19.9795 51.0312C19.9795 50.4219 20.0915 49.8841 20.3154 49.418C20.542 48.9492 20.8571 48.5833 21.2607 48.3203C21.667 48.0547 22.141 47.9219 22.6826 47.9219C23.1045 47.9219 23.4847 48 23.8232 48.1562C24.1618 48.3125 24.4391 48.5312 24.6553 48.8125C24.8714 49.0937 25.0055 49.4219 25.0576 49.7969H24.1357C24.0654 49.5234 23.9092 49.2812 23.667 49.0703C23.4274 48.8568 23.1045 48.75 22.6982 48.75C22.3389 48.75 22.0238 48.8437 21.7529 49.0312C21.4847 49.2161 21.2751 49.4779 21.124 49.8164C20.9756 50.1523 20.9014 50.5469 20.9014 51C20.9014 51.4635 20.9743 51.8672 21.1201 52.2109C21.2686 52.5547 21.4769 52.8216 21.7451 53.0117C22.016 53.2018 22.3337 53.2969 22.6982 53.2969C22.9378 53.2969 23.1553 53.2552 23.3506 53.1719C23.5459 53.0885 23.7113 52.9688 23.8467 52.8125C23.9821 52.6562 24.0785 52.4687 24.1357 52.25H25.0576C25.0055 52.6042 24.8766 52.9232 24.6709 53.207C24.4678 53.4883 24.1982 53.7122 23.8623 53.8789C23.529 54.043 23.141 54.125 22.6982 54.125ZM29.0146 48V48.7812H25.9053V48H29.0146ZM26.8115 46.5625H27.7334V52.2812C27.7334 52.5417 27.7712 52.737 27.8467 52.8672C27.9248 52.9948 28.0238 53.0807 28.1436 53.125C28.266 53.1667 28.3949 53.1875 28.5303 53.1875C28.6318 53.1875 28.7152 53.1823 28.7803 53.1719C28.8454 53.1589 28.8975 53.1484 28.9365 53.1406L29.124 53.9687C29.0615 53.9922 28.9743 54.0156 28.8623 54.0391C28.7503 54.0651 28.6084 54.0781 28.4365 54.0781C28.1761 54.0781 27.9209 54.0221 27.6709 53.9102C27.4235 53.7982 27.2178 53.6276 27.0537 53.3984C26.8923 53.1693 26.8115 52.8802 26.8115 52.5312V46.5625ZM30.4014 54V48H31.3232V54H30.4014ZM30.8701 47C30.6904 47 30.5355 46.9388 30.4053 46.8164C30.2777 46.694 30.2139 46.5469 30.2139 46.375C30.2139 46.2031 30.2777 46.056 30.4053 45.9336C30.5355 45.8112 30.6904 45.75 30.8701 45.75C31.0498 45.75 31.2035 45.8112 31.3311 45.9336C31.4613 46.056 31.5264 46.2031 31.5264 46.375C31.5264 46.5469 31.4613 46.694 31.3311 46.8164C31.2035 46.9388 31.0498 47 30.8701 47ZM35.4492 54.125C34.9076 54.125 34.4323 53.9961 34.0234 53.7383C33.6172 53.4805 33.2995 53.1198 33.0703 52.6562C32.8438 52.1927 32.7305 51.651 32.7305 51.0312C32.7305 50.4062 32.8438 49.8607 33.0703 49.3945C33.2995 48.9284 33.6172 48.5664 34.0234 48.3086C34.4323 48.0508 34.9076 47.9219 35.4492 47.9219C35.9909 47.9219 36.4648 48.0508 36.8711 48.3086C37.2799 48.5664 37.5977 48.9284 37.8242 49.3945C38.0534 49.8607 38.168 50.4062 38.168 51.0312C38.168 51.651 38.0534 52.1927 37.8242 52.6562C37.5977 53.1198 37.2799 53.4805 36.8711 53.7383C36.4648 53.9961 35.9909 54.125 35.4492 54.125ZM35.4492 53.2969C35.8607 53.2969 36.1992 53.1914 36.4648 52.9805C36.7305 52.7695 36.9271 52.4922 37.0547 52.1484C37.1823 51.8047 37.2461 51.4323 37.2461 51.0312C37.2461 50.6302 37.1823 50.2565 37.0547 49.9102C36.9271 49.5638 36.7305 49.2839 36.4648 49.0703C36.1992 48.8568 35.8607 48.75 35.4492 48.75C35.0378 48.75 34.6992 48.8568 34.4336 49.0703C34.168 49.2839 33.9714 49.5638 33.8438 49.9102C33.7161 50.2565 33.6523 50.6302 33.6523 51.0312C33.6523 51.4323 33.7161 51.8047 33.8438 52.1484C33.9714 52.4922 34.168 52.7695 34.4336 52.9805C34.6992 53.1914 35.0378 53.2969 35.4492 53.2969ZM40.4971 50.3906V54H39.5752V48H40.4658V48.9375H40.5439C40.6846 48.6328 40.8981 48.388 41.1846 48.2031C41.471 48.0156 41.8408 47.9219 42.2939 47.9219C42.7002 47.9219 43.0557 48.0052 43.3604 48.1719C43.665 48.3359 43.902 48.5859 44.0713 48.9219C44.2406 49.2552 44.3252 49.6771 44.3252 50.1875V54H43.4033V50.25C43.4033 49.7786 43.2809 49.4115 43.0361 49.1484C42.7913 48.8828 42.4554 48.75 42.0283 48.75C41.734 48.75 41.471 48.8138 41.2393 48.9414C41.0101 49.069 40.8291 49.2552 40.6963 49.5C40.5635 49.7448 40.4971 50.0417 40.4971 50.3906ZM51.9004 46V54H50.9316V47.0156H50.8848L48.9316 48.3125V47.3281L50.9316 46H51.9004Z" fill="black"/>
<defs>
<linearGradient id="paint0_linear_0_1" x1="1072" y1="456" x2="1072" y2="1072" gradientUnits="userSpaceOnUse">
<stop stop-color="#13F36D"/>
<stop offset="0.958381" stop-color="#12EF6A" stop-opacity="0.0416189"/>
<stop offset="0.958481" stop-color="#280BF5" stop-opacity="0.0312023"/>
<stop offset="1" stop-color="#12EF6A" stop-opacity="0"/>
</linearGradient>
</defs>
</svg>
